<?xml version="1.0" standalone="no"?>
<!DOCTYPE svg PUBLIC "-//W3C//DTD SVG 20010904//EN"
 "http://www.w3.org/TR/2001/REC-SVG-20010904/DTD/svg10.dtd">
<svg version="1.0" xmlns="http://www.w3.org/2000/svg"
 width="700.000000pt" height="700.000000pt" viewBox="0 0 700.000000 700.000000"
 preserveAspectRatio="xMidYMid meet">
<metadata>
Created by potrace 1.11, written by Peter Selinger 2001-2013
</metadata>
<g transform="translate(0.000000,700.000000) scale(0.100000,-0.100000)"
fill="#000000" stroke="none">
<path d="M4335 6214 c-38 -7 -92 -15 -120 -18 -27 -3 -95 -12 -150 -20 -55 -8
-122 -18 -150 -21 -56 -7 -98 -13 -135 -20 -14 -2 -47 -7 -75 -10 -56 -7 -66
-8 -215 -29 -58 -9 -125 -18 -150 -21 -25 -3 -106 -14 -180 -25 -74 -11 -155
-22 -179 -25 -23 -3 -55 -7 -70 -9 -14 -3 -44 -7 -66 -10 -155 -21 -344 -48
-365 -51 -14 -2 -79 -11 -145 -20 -129 -17 -175 -24 -216 -31 -15 -2 -47 -6
-70 -9 -72 -9 -142 -18 -217 -30 -43 -7 -49 -8 -142 -19 -30 -4 -66 -9 -80
-11 -14 -2 -43 -7 -65 -10 -70 -9 -339 -46 -365 -50 -14 -2 -47 -7 -75 -11
-27 -3 -57 -8 -66 -9 -9 -2 -40 -6 -70 -10 -30 -3 -65 -8 -79 -10 -14 -2 -45
-6 -70 -10 -25 -3 -56 -8 -70 -10 -14 -2 -45 -7 -70 -10 -175 -23 -301 -113
-379 -268 -59 -117 -82 -216 -85 -367 -7 -320 64 -579 200 -730 l36 -40 -23
-8 c-13 -5 -82 -26 -153 -47 -139 -42 -166 -60 -166 -110 0 -50 50 -89 174
-140 153 -61 228 -232 226 -515 -1 -192 -6 -220 -36 -220 -26 0 -265 -81 -339
-115 -76 -35 -135 -79 -135 -101 0 -21 38 -40 118 -59 39 -9 72 -19 72 -22 0
-2 -17 -25 -39 -51 -110 -134 -153 -293 -146 -547 9 -359 109 -608 291 -728
29 -19 411 -152 549 -191 6 -2 17 -6 25 -9 8 -3 80 -26 160 -52 157 -50 820
-265 910 -295 30 -10 190 -62 355 -115 165 -54 374 -122 465 -151 118 -39 174
-53 195 -48 29 6 414 97 465 111 32 8 11 3 260 63 196 47 406 98 750 181 347
84 416 101 430 104 8 2 157 38 330 80 982 239 1185 288 1240 300 151 33 327
82 343 95 20 17 20 18 4 44 -23 34 -170 104 -327 155 -69 23 -130 41 -137 41
-29 0 -37 53 -36 236 0 196 43 341 125 430 28 31 61 51 120 75 49 19 96 47
120 70 34 32 39 42 34 71 -6 42 -32 63 -104 83 -31 9 -63 18 -70 21 -9 3 -1
15 25 36 130 108 206 275 248 543 4 22 8 97 10 166 5 223 -39 398 -129 518
-14 19 -25 36 -23 37 1 2 14 5 27 8 108 20 316 78 329 90 13 13 13 19 1 42
-23 43 -246 139 -451 194 -25 7 -39 17 -40 28 0 9 -2 26 -5 37 -10 49 -4 286
10 355 25 129 52 188 118 253 32 31 64 57 71 57 27 0 155 69 175 95 32 41 28
96 -8 115 -10 5 -92 32 -182 59 -89 27 -284 86 -433 131 -148 45 -313 95 -365
110 -52 16 -192 58 -310 93 -118 36 -357 108 -530 160 -173 53 -368 112 -434
132 -125 38 -149 39 -271 19z m-3455 -868 c107 -35 350 -115 540 -176 190 -62
417 -136 505 -165 88 -28 302 -98 475 -155 173 -56 419 -137 545 -179 l230
-76 -2 -75 c0 -41 -4 -156 -7 -255 -4 -99 -9 -252 -12 -340 -2 -87 -6 -161 -8
-163 -4 -3 -188 47 -551 150 -77 21 -162 45 -190 53 -52 14 -290 81 -500 140
-66 19 -257 72 -425 119 -168 47 -410 116 -537 152 -128 36 -244 67 -258 70
-99 18 -181 118 -219 269 -22 91 -28 139 -31 265 -3 196 35 337 108 392 70 53
102 51 337 -26z m5534 -173 c-43 -106 -58 -196 -58 -363 0 -85 3 -185 8 -221
l8 -66 -68 -17 c-38 -10 -77 -20 -88 -22 -10 -2 -42 -10 -70 -18 -28 -8 -62
-17 -76 -19 -14 -3 -63 -15 -110 -27 -47 -12 -92 -23 -100 -25 -8 -2 -361 -90
-785 -195 -423 -105 -778 -194 -787 -196 -10 -2 -27 -6 -38 -9 -11 -3 -28 -7
-37 -9 -10 -2 -182 -46 -383 -96 -201 -50 -372 -93 -380 -95 -8 -2 -46 -11
-83 -20 -37 -8 -72 -13 -76 -11 -5 3 -7 22 -5 43 1 21 5 121 8 223 15 497 18
555 29 562 6 3 31 10 56 14 25 4 51 8 56 9 6 2 46 10 90 19 77 16 98 20 148
31 12 3 38 8 57 11 19 4 118 24 219 45 101 22 194 41 205 43 17 3 214 43 301
62 52 10 178 36 198 40 12 2 76 15 142 29 100 21 473 98 539 111 11 2 65 13
120 25 56 11 110 23 121 25 11 2 110 22 220 45 228 47 280 58 315 64 14 3 86
18 160 34 185 40 172 42 144 -26z m12 -1093 c98 -48 145 -188 139 -415 -5
-161 -16 -231 -51 -323 -24 -64 -68 -135 -101 -162 -27 -23 -88 -50 -112 -50
-11 0 -30 -4 -43 -9 -13 -6 -129 -39 -258 -75 -236 -65 -819 -229 -1110 -311
-85 -24 -238 -67 -340 -95 -102 -28 -205 -57 -230 -65 -25 -7 -121 -34 -215
-60 -93 -25 -189 -53 -212 -60 l-43 -14 -1 52 c0 29 -2 93 -4 142 -4 116 -18
546 -19 605 l-1 45 310 102 c171 57 319 105 330 107 11 2 31 9 45 15 14 5 180
60 370 122 190 61 410 133 490 159 80 26 314 102 520 169 206 67 384 126 395
131 35 15 97 11 141 -10z m-5735 -185 c68 -14 135 -28 149 -31 14 -3 45 -10
70 -14 25 -5 146 -30 270 -55 124 -26 232 -48 240 -50 8 -2 62 -13 120 -25 58
-12 114 -24 125 -26 11 -2 85 -17 165 -33 80 -17 156 -32 170 -35 14 -3 48
-10 75 -15 28 -6 73 -16 100 -21 28 -6 59 -12 70 -14 111 -23 301 -63 440 -92
162 -33 391 -80 445 -90 14 -2 36 -7 50 -10 14 -3 133 -28 264 -55 132 -27
240 -50 242 -51 2 -3 11 -238 20 -568 3 -118 7 -225 9 -237 3 -16 -1 -23 -12
-23 -9 0 -262 61 -562 136 -300 75 -553 137 -561 139 -8 2 -215 54 -460 115
-245 61 -453 114 -462 116 -10 2 -26 6 -35 8 -165 39 -986 246 -990 250 -3 3
-1 38 4 78 11 75 10 335 -2 398 -10 55 -33 135 -55 184 -11 26 -18 46 -16 46
2 0 59 -11 127 -25z m158 -1231 c212 -69 418 -136 456 -149 39 -13 246 -80
460 -150 215 -70 491 -160 615 -200 124 -41 304 -100 400 -131 96 -31 177 -58
179 -60 5 -5 5 -52 -2 -234 -4 -91 -10 -262 -13 -380 -3 -118 -8 -217 -10
-219 -2 -2 -56 11 -121 28 -65 18 -131 36 -148 40 -61 17 -1401 392 -1430 402
-16 5 -113 32 -215 60 -102 28 -205 56 -230 64 -25 7 -106 30 -180 50 -74 20
-150 41 -169 47 -85 26 -169 153 -196 293 -20 102 -23 145 -20 275 3 160 17
226 62 298 31 51 97 92 146 92 17 0 204 -57 416 -126z m5362 -92 c-48 -93 -65
-196 -65 -392 -1 -102 2 -206 7 -232 l7 -47 -42 -12 c-24 -6 -50 -13 -58 -14
-8 -2 -107 -27 -220 -55 -113 -28 -212 -53 -220 -55 -8 -1 -353 -87 -765 -190
-820 -204 -776 -193 -806 -200 -11 -2 -29 -7 -39 -10 -10 -3 -27 -7 -37 -9
-10 -2 -110 -27 -223 -56 -113 -28 -212 -53 -220 -55 -60 -13 -437 -106 -447
-110 -8 -3 -11 21 -8 88 2 51 6 184 10 297 10 323 15 443 18 446 3 3 5 4 127
28 41 8 152 31 245 51 94 19 184 38 200 40 17 3 43 8 58 11 15 3 49 1 76 -6
46 -11 55 -9 232 50 101 33 199 63 218 66 18 3 41 7 50 9 53 12 677 140 781
161 69 13 141 29 160 34 19 5 49 11 65 13 17 3 41 8 55 11 14 3 36 8 50 10 19
4 521 107 755 156 22 4 43 8 48 9 4 1 -1 -16 -12 -37z"/>
</g>
</svg>
