<?xml version="1.0" standalone="no"?>
<!DOCTYPE svg PUBLIC "-//W3C//DTD SVG 20010904//EN"
 "http://www.w3.org/TR/2001/REC-SVG-20010904/DTD/svg10.dtd">
<svg version="1.0" xmlns="http://www.w3.org/2000/svg"
 width="700.000000pt" height="700.000000pt" viewBox="0 0 700.000000 700.000000"
 preserveAspectRatio="xMidYMid meet">
<metadata>
Created by potrace 1.11, written by Peter Selinger 2001-2013
</metadata>
<g transform="translate(0.000000,700.000000) scale(0.100000,-0.100000)"
fill="#000000" stroke="none">
<path d="M3260 6974 c-19 -2 -84 -9 -145 -15 -477 -47 -1005 -225 -1425 -479
-800 -485 -1374 -1262 -1590 -2153 -70 -289 -73 -313 -77 -777 -4 -357 -2
-443 12 -540 51 -360 154 -695 310 -1018 174 -358 367 -636 634 -914 555 -578
1275 -941 2083 -1050 218 -30 640 -32 853 -4 808 103 1513 443 2065 996 569
568 902 1265 1002 2095 16 136 16 592 0 730 -101 846 -453 1567 -1047 2143
-480 466 -1059 777 -1708 917 -218 47 -402 66 -677 70 -140 2 -271 1 -290 -1z
m1541 -2119 c705 -321 1287 -589 1292 -594 5 -5 7 -21 3 -34 -5 -20 -35 -41
-148 -100 l-143 -75 -5 -341 c-4 -289 -7 -343 -20 -351 -22 -14 -164 -12 -178
2 -9 9 -12 87 -12 290 0 153 -3 278 -7 278 -3 0 -47 -22 -97 -49 -50 -27 -140
-75 -201 -107 -60 -32 -488 -259 -949 -506 -506 -269 -844 -444 -850 -439 -6
4 -580 313 -1276 686 -696 373 -1271 684 -1279 691 -8 7 -11 22 -7 37 4 19 30
35 128 81 465 215 2445 1115 2455 1115 6 1 589 -262 1294 -584z m194 -1459
c27 -27 23 -4 71 -389 44 -362 43 -411 -9 -522 -59 -123 -166 -220 -406 -364
-291 -176 -609 -299 -911 -352 -97 -18 -383 -18 -480 0 -342 60 -701 208
-1035 426 -211 138 -260 191 -309 337 -42 124 -42 174 -2 448 48 330 55 362
77 399 13 22 26 31 45 31 17 0 263 -134 658 -357 347 -196 670 -379 719 -406
l87 -49 88 49 c347 195 1339 757 1347 764 15 15 35 10 60 -15z m779 -120 c72
-30 113 -129 87 -209 -25 -76 -123 -128 -201 -107 -115 31 -162 159 -95 261
41 63 132 87 209 55z m-149 -391 c52 -18 110 -19 171 0 41 12 51 12 63 1 7 -8
35 -90 61 -183 55 -194 57 -184 -47 -235 -74 -36 -181 -48 -260 -29 -66 17
-153 70 -153 95 0 18 88 343 97 359 6 10 23 9 68 -8z"/>
</g>
</svg>
